<mxfile host="app.diagrams.net" modified="2021-03-18T09:17:22.996Z" agent="5.0 (Windows NT 10.0; Win64; x64) AppleWebKit/537.36 (KHTML, like Gecko) Chrome/89.0.4389.90 Safari/537.36 Edg/89.0.774.54" etag="IhldN5vTg-aq586RlLB4" version="14.4.9" type="github">
  <diagram id="TXUJNLeIIZEbgpjyIdXI" name="Page-1">
    <mxGraphModel dx="1422" dy="746" grid="1" gridSize="10" guides="1" tooltips="1" connect="1" arrows="1" fold="1" page="1" pageScale="1" pageWidth="827" pageHeight="1169" math="0" shadow="0">
      <root>
        <mxCell id="0" />
        <mxCell id="1" parent="0" />
        <mxCell id="4xTkx6OsoBjm7Taz3u98-1" value="Arborescence de l&#39;application mobile" style="text;html=1;align=center;verticalAlign=middle;resizable=0;points=[];autosize=1;" parent="1" vertex="1">
          <mxGeometry x="309" y="10" width="210" height="20" as="geometry" />
        </mxCell>
        <mxCell id="4xTkx6OsoBjm7Taz3u98-2" value="Page d&#39;accueil : Login" style="whiteSpace=wrap;html=1;" parent="1" vertex="1">
          <mxGeometry x="331" y="50" width="166" height="70" as="geometry" />
        </mxCell>
        <mxCell id="4xTkx6OsoBjm7Taz3u98-3" value="" style="rounded=0;whiteSpace=wrap;html=1;" parent="1" vertex="1">
          <mxGeometry x="354" y="190" width="120" height="60" as="geometry" />
        </mxCell>
      </root>
    </mxGraphModel>
  </diagram>
</mxfile>
